<svg width="33" height="33" viewBox="0 0 33 33" fill="none" xmlns="http://www.w3.org/2000/svg">
<path d="M12.1013 5.81714C8.55054 5.81714 5.63257 8.7312 5.63257 12.2859V21.3484C5.63257 24.8992 8.54663 27.8171 12.1013 27.8171H21.1638C24.7146 27.8171 27.6326 24.9031 27.6326 21.3484V12.2859C27.6326 8.73511 24.7185 5.81714 21.1638 5.81714H12.1013ZM12.1013 7.81714H21.1638C23.6365 7.81714 25.6326 9.81323 25.6326 12.2859V21.3484C25.6326 23.821 23.6365 25.8171 21.1638 25.8171H12.1013C9.62866 25.8171 7.63257 23.821 7.63257 21.3484V12.2859C7.63257 9.81323 9.62866 7.81714 12.1013 7.81714ZM22.5388 10.0046C22.0349 10.0046 21.6326 10.407 21.6326 10.9109C21.6326 11.4148 22.0349 11.8171 22.5388 11.8171C23.0427 11.8171 23.4451 11.4148 23.4451 10.9109C23.4451 10.407 23.0427 10.0046 22.5388 10.0046ZM16.6326 10.8171C13.3318 10.8171 10.6326 13.5164 10.6326 16.8171C10.6326 20.1179 13.3318 22.8171 16.6326 22.8171C19.9333 22.8171 22.6326 20.1179 22.6326 16.8171C22.6326 13.5164 19.9333 10.8171 16.6326 10.8171ZM16.6326 12.8171C18.8552 12.8171 20.6326 14.5945 20.6326 16.8171C20.6326 19.0398 18.8552 20.8171 16.6326 20.8171C14.4099 20.8171 12.6326 19.0398 12.6326 16.8171C12.6326 14.5945 14.4099 12.8171 16.6326 12.8171Z" fill="black"/>
</svg>
