<svg width="33" height="33" viewBox="0 0 33 33" fill="none" xmlns="http://www.w3.org/2000/svg">
<path d="M26.7029 4.81321C26.367 4.82884 26.0506 4.92649 25.7693 5.03587H25.7654C25.4802 5.14915 24.1248 5.71946 22.0662 6.58274C20.0076 7.44993 17.3357 8.57493 14.6834 9.69212C9.38649 11.9226 4.17946 14.1179 4.17946 14.1179L4.24196 14.0945C4.24196 14.0945 3.88258 14.2116 3.50758 14.4695C3.31618 14.5945 3.10524 14.7663 2.92165 15.0359C2.73805 15.3054 2.58962 15.7195 2.6443 16.1452C2.73415 16.8679 3.2029 17.3015 3.53883 17.5398C3.87868 17.782 4.2029 17.8952 4.2029 17.8952H4.21071L9.09352 19.5398C9.31227 20.2429 10.5818 24.4148 10.8865 25.3757C11.0662 25.9499 11.242 26.3093 11.4607 26.5827C11.5662 26.7234 11.6912 26.8406 11.8396 26.9343C11.8982 26.9695 11.9607 26.9968 12.0232 27.0202C12.0427 27.032 12.0623 27.0359 12.0857 27.0398L12.0349 27.0281C12.0506 27.032 12.0623 27.0437 12.074 27.0476C12.1131 27.0593 12.1404 27.0632 12.1912 27.071C12.9646 27.3054 13.5857 26.8249 13.5857 26.8249L13.6209 26.7976L16.5037 24.1726L21.3357 27.8796L21.4451 27.9265C22.4529 28.3679 23.4724 28.1218 24.0115 27.6882C24.5545 27.2507 24.7654 26.6921 24.7654 26.6921L24.8006 26.6023L28.5349 7.47337C28.6404 7.00071 28.6677 6.5593 28.5506 6.12962C28.4334 5.69993 28.1326 5.29759 27.7693 5.08274C27.4021 4.86399 27.0388 4.79759 26.7029 4.81321ZM26.6013 6.86399C26.5974 6.92649 26.6091 6.91868 26.5818 7.03977V7.05149L22.8826 25.9812C22.867 26.0085 22.8396 26.0671 22.7654 26.1257C22.6873 26.1882 22.6248 26.2273 22.3006 26.0984L16.3904 21.5671L12.8201 24.821L13.5701 20.032C13.5701 20.032 22.8279 11.4031 23.2263 11.032C23.6248 10.6609 23.492 10.5827 23.492 10.5827C23.5193 10.1296 22.8904 10.4499 22.8904 10.4499L10.7146 17.9929L10.7107 17.9734L4.87477 16.0085V16.0046C4.87087 16.0046 4.86305 16.0007 4.85915 16.0007C4.86305 16.0007 4.8904 15.989 4.8904 15.989L4.92165 15.9734L4.9529 15.9616C4.9529 15.9616 10.1638 13.7663 15.4607 11.5359C18.1131 10.4187 20.7849 9.29368 22.8396 8.42649C24.8943 7.56321 26.4138 6.9304 26.4998 6.89524C26.5818 6.86399 26.5427 6.86399 26.6013 6.86399Z" fill="black"/>
</svg>
