<svg width="33" height="33" viewBox="0 0 33 33" fill="none" xmlns="http://www.w3.org/2000/svg">
<path d="M9.7146 5.81714C7.47241 5.81714 5.63257 7.65698 5.63257 9.89917V23.7351C5.63257 25.9773 7.47241 27.8171 9.7146 27.8171H23.5505C25.7927 27.8171 27.6326 25.9773 27.6326 23.7351V9.89917C27.6326 7.65698 25.7927 5.81714 23.5505 5.81714H9.7146ZM9.7146 7.81714H23.5505C24.7107 7.81714 25.6326 8.73901 25.6326 9.89917V23.7351C25.6326 24.8953 24.7107 25.8171 23.5505 25.8171H9.7146C8.55444 25.8171 7.63257 24.8953 7.63257 23.7351V9.89917C7.63257 8.73901 8.55444 7.81714 9.7146 7.81714ZM16.3513 13.0476C15.6169 13.0398 14.9919 13.0476 14.6404 13.2195C14.406 13.3328 14.2263 13.5906 14.3357 13.6023C14.4724 13.6218 14.781 13.6882 14.9451 13.9109C15.156 14.196 15.1482 14.8406 15.1482 14.8406C15.1482 14.8406 15.2654 16.614 14.863 16.8367C14.5857 16.989 14.2068 16.6804 13.3865 15.2703C12.9685 14.5437 12.6521 13.7429 12.6521 13.7429C12.6521 13.7429 12.5935 13.5945 12.4841 13.5164C12.3513 13.4187 12.1677 13.3875 12.1677 13.3875L10.2107 13.3992C10.2107 13.3992 9.91772 13.4109 9.81226 13.5359C9.7146 13.6531 9.80444 13.8835 9.80444 13.8835C9.80444 13.8835 11.3357 17.4656 13.0701 19.2703C14.6599 20.9265 16.4646 20.8171 16.4646 20.8171H17.2849C17.2849 20.8171 17.531 20.7898 17.656 20.657C17.7732 20.532 17.7693 20.2976 17.7693 20.2976C17.7693 20.2976 17.7537 19.2 18.2615 19.0359C18.7654 18.8796 19.406 20.0984 20.0896 20.5671C20.6091 20.9226 21.0037 20.8445 21.0037 20.8445L22.8318 20.8171C22.8318 20.8171 23.7849 20.7585 23.3318 20.0046C23.2966 19.946 23.0701 19.45 21.9763 18.4343C20.8279 17.3718 20.9802 17.5437 22.363 15.7039C23.2029 14.5828 23.5388 13.8992 23.4333 13.6023C23.3318 13.325 22.7146 13.3992 22.7146 13.3992L20.656 13.4109C20.656 13.4109 20.5037 13.3914 20.3904 13.4578C20.281 13.5242 20.2107 13.6804 20.2107 13.6804C20.2107 13.6804 19.8826 14.5476 19.449 15.2859C18.5349 16.8406 18.1638 16.9265 18.0154 16.8289C17.6677 16.6023 17.7537 15.9226 17.7537 15.4421C17.7537 13.9304 17.9841 13.3054 17.3083 13.1414C17.0857 13.0867 16.9216 13.0515 16.3513 13.0476Z" fill="black"/>
</svg>
