<svg width="41" height="24" viewBox="0 0 41 24" fill="none" xmlns="http://www.w3.org/2000/svg">
<path fill-rule="evenodd" clip-rule="evenodd" d="M29.7483 6.35289C29.3488 6.84487 28.881 7.32615 28.3449 7.79673C27.8088 8.26734 27.2306 8.70049 26.6104 9.09622C25.9901 9.4919 25.3384 9.85025 24.6551 10.1711C23.9718 10.492 23.2832 10.7593 22.5895 10.9732C23.7248 11.5935 24.5815 12.3422 25.1597 13.2192C25.2325 13.3296 25.3013 13.443 25.3663 13.5592C25.5171 13.624 25.7316 13.7006 25.7789 13.7013C25.8124 13.7361 25.7706 13.7109 25.8381 13.7401C25.8627 13.7508 25.8866 13.7553 25.9087 13.7618C25.964 13.778 25.9964 13.791 26.0561 13.8064L26.7342 13.9917L26.7614 13.9945C26.8564 14.0266 27.0532 14.0754 27.1528 14.06C27.1721 14.0722 27.1544 14.066 27.1953 14.0793C27.208 14.0834 27.2309 14.0888 27.24 14.0906C27.2713 14.097 27.3079 14.1007 27.3416 14.1073C27.9249 14.161 28.4096 14.2266 29.0166 14.2138C29.2875 14.2081 29.5753 14.1884 29.8441 14.1593C30.0184 14.1405 30.5008 14.0476 30.621 14.0537C30.6536 14.0465 30.6865 14.0413 30.7177 14.0335C30.7865 14.0165 30.7557 14.0371 30.7972 14.001C30.883 14.0077 30.9964 13.9756 31.0777 13.9508C31.1742 13.9345 31.2691 13.9079 31.3587 13.8841C31.4545 13.8588 31.5596 13.845 31.6129 13.7965C31.7228 13.8037 31.9469 13.71 32.0442 13.671C32.1553 13.6404 32.3562 13.5946 32.4352 13.5137C32.501 13.5129 32.5575 13.4811 32.6285 13.4513C32.6722 13.4329 32.7704 13.393 32.7944 13.3729C32.8513 13.3577 32.8451 13.3584 32.897 13.3327C32.9095 13.3265 32.9399 13.3128 32.9464 13.3088C33.0155 13.2652 32.9601 13.3069 32.9899 13.2707L32.9917 13.2784C33.0664 13.2595 33.0904 13.2417 33.1598 13.2056C33.1893 13.1903 33.2055 13.1844 33.2332 13.169C33.2811 13.1422 33.2693 13.153 33.2964 13.1187C33.3704 13.1098 33.7771 12.8792 33.8271 12.8274C33.8861 12.8071 33.933 12.7852 33.9814 12.7334C34.0325 12.7144 34.0956 12.676 34.1189 12.6385C34.2088 12.6156 34.4916 12.4069 34.5981 12.3297L34.6688 12.2618C34.7153 12.2423 34.8361 12.1622 34.8552 12.1118C34.9467 12.0927 34.8878 12.1111 34.9113 12.0734C34.9729 12.0474 35.7196 11.3812 35.7604 11.3392L36.2222 10.7977C36.2529 10.7587 36.2875 10.7168 36.3144 10.6855L36.4665 10.4864C36.4886 10.4444 36.4673 10.5058 36.481 10.4515C36.5028 10.4341 36.4908 10.4451 36.5152 10.4229C36.5176 10.4206 36.5406 10.3991 36.544 10.3953C36.5775 10.3575 36.5765 10.3489 36.5993 10.3013C36.6225 10.2942 36.6094 10.3047 36.6309 10.2783C36.634 10.2744 36.6565 10.2398 36.6611 10.2331C36.6896 10.1922 36.7059 10.1759 36.7219 10.1351C36.7258 10.1319 36.7318 10.122 36.7336 10.1254C36.7425 10.1429 37.0433 9.72 37.0789 9.62715C37.1091 9.61492 37.0949 9.62195 37.1227 9.57974C37.1473 9.54249 37.1524 9.53324 37.1619 9.49841L37.1859 9.47782C37.1983 9.46481 37.2018 9.46453 37.2134 9.44673C37.2494 9.392 37.2283 9.42526 37.2415 9.37348C37.282 9.34486 37.5626 8.8443 37.5683 8.76972C37.5721 8.76627 37.5778 8.75574 37.5794 8.75897L37.7003 8.5037C37.7657 8.41344 38.0275 7.79057 38.0252 7.67144C38.0675 7.63667 38.0687 7.60361 38.0874 7.54634C38.1041 7.49538 38.1185 7.45268 38.1345 7.39886C38.1896 7.18875 38.4358 6.44328 38.4163 6.28014C38.4274 6.26266 38.4219 6.27824 38.4367 6.23862C38.4405 6.22829 38.4508 6.19143 38.4535 6.1791C38.4638 6.13285 38.4697 6.08515 38.477 6.03729C38.515 5.82285 38.6276 5.13484 38.5975 4.93839C38.6396 4.88307 38.6326 4.72957 38.6366 4.64646C38.6443 4.53233 38.6816 4.38302 38.6555 4.27901L38.7015 4.26204L38.6859 5.02835C38.6396 5.10005 38.65 5.29243 38.6428 5.39521C38.6303 5.47379 38.6207 5.52798 38.6307 5.60884C38.5827 5.67014 38.5788 5.85001 38.5696 5.93825C38.5366 6.1236 38.5036 6.3151 38.4687 6.48965C38.4405 6.63065 38.3476 6.9357 38.3546 7.04748C38.3238 7.08035 38.3338 7.05848 38.3155 7.1232C38.3052 7.15924 38.301 7.19287 38.2936 7.23027C38.262 7.30478 38.0929 7.84165 38.0955 7.90048C38.0753 7.92267 38.086 7.89656 38.0612 7.95008C38.0402 7.99552 38.0463 7.99254 38.0359 8.03541C38.0063 8.08004 37.9509 8.22348 37.9492 8.27495C37.9336 8.29123 37.9349 8.28319 37.9193 8.31088C37.9074 8.33218 37.9114 8.3285 37.9021 8.35158C37.8875 8.38748 37.8783 8.41082 37.8648 8.44909C37.8101 8.5519 37.772 8.65984 37.7199 8.76573L37.6086 8.98855C37.5782 9.05246 37.5829 9.02965 37.5806 9.08244C37.5277 9.13421 37.4919 9.23322 37.4665 9.30862C37.4329 9.34873 37.3809 9.45652 37.3781 9.51076C37.356 9.52999 37.3708 9.50003 37.3436 9.54086C37.3072 9.59547 37.3368 9.5381 37.3198 9.60235C37.2707 9.6278 37.1615 9.81031 37.1251 9.86352L36.9349 10.1489C36.9272 10.1561 36.9127 10.1642 36.8943 10.1892C36.8633 10.2312 36.8759 10.2123 36.8553 10.2636C36.8342 10.271 36.8462 10.2618 36.8249 10.287C36.8249 10.287 36.796 10.3271 36.7934 10.3306C36.785 10.3426 36.7735 10.3576 36.7624 10.3751C36.7272 10.4313 36.746 10.3899 36.7366 10.4339C36.6506 10.5003 36.5909 10.6134 36.527 10.6965C36.4928 10.7408 36.463 10.7785 36.4294 10.8219C36.3852 10.8792 36.351 10.9065 36.3259 10.9692C36.277 10.9979 36.2734 10.9947 36.2561 11.0516C36.2135 11.0791 36.2359 11.065 36.2021 11.0973C36.1885 11.1104 36.16 11.1381 36.1472 11.1519C36.1073 11.1949 36.0759 11.2344 36.0499 11.2865C36.032 11.2963 36.0433 11.2882 36.0213 11.3073C35.9255 11.3905 35.5941 11.7222 35.5623 11.7859C35.4969 11.8163 35.5329 11.7841 35.4961 11.8441C35.4404 11.8615 35.4048 11.9084 35.3783 11.9544C35.3744 11.9562 34.718 12.4646 34.6696 12.5391C34.6255 12.5475 34.66 12.5365 34.6204 12.5577L33.8589 13.0748C33.8238 13.0988 33.8321 13.0896 33.8197 13.1081L33.6259 13.2127C33.601 13.2325 33.611 13.225 33.5933 13.2447L33.5245 13.271C33.4731 13.2934 33.4327 13.3202 33.3865 13.3428C33.3315 13.3697 33.286 13.3881 33.2486 13.4356C33.2129 13.4394 32.7262 13.6663 32.697 13.6901C32.6168 13.7131 32.4818 13.749 32.4254 13.8105L32.3842 13.8197L32.1546 13.893L31.8322 14.0068C31.7962 14.0171 31.7716 14.0242 31.7322 14.0357C31.7189 14.0396 31.6857 14.0484 31.675 14.0532C31.615 14.08 31.6464 14.0666 31.6209 14.0881C31.5769 14.0812 31.5808 14.073 31.5376 14.101L31.3337 14.1644C31.2473 14.158 30.8946 14.2571 30.7756 14.2817C30.5886 14.3205 30.4026 14.3485 30.2125 14.379C30.1594 14.3858 30.1069 14.3885 30.0548 14.3962L29.9646 14.4192C29.9621 14.4147 29.9548 14.4226 29.9502 14.4251C29.8448 14.4021 29.7168 14.4418 29.6052 14.4444L29.3163 14.4697C29.3125 14.4707 29.3044 14.4797 29.3018 14.4753C29.2991 14.4708 29.2921 14.4787 29.2877 14.4813L28.5834 14.477L28.3082 14.4702L28.0225 14.4525L27.7932 14.4279L27.463 14.4098C27.416 14.3732 27.292 14.3719 27.2179 14.3613C27.0259 14.3355 26.8423 14.2965 26.656 14.2563C26.5184 14.2265 26.2104 14.128 26.0972 14.1318C26.0474 14.0749 25.7678 14.0115 25.6853 13.9926C25.6671 13.9836 25.6191 13.9642 25.5616 13.9423C25.8937 14.6607 26.091 15.4785 26.1531 16.3957L26.3739 19.4117C26.6051 22.1283 27.6669 23.4866 29.5591 23.4866C30.0847 23.4866 30.6103 23.3743 31.136 23.1497C31.6615 22.9251 32.1136 22.6096 32.492 22.2032C32.6392 22.0534 32.7443 21.9786 32.8074 21.9786C32.9125 21.9786 32.9651 22.0428 32.9651 22.1711C32.9651 22.4064 32.7128 22.6845 32.2082 23.0053C31.8087 23.2834 31.3619 23.4973 30.8679 23.647C30.3738 23.7968 29.8535 23.8716 29.3068 23.8716C25.7957 23.8716 23.914 21.6577 23.6617 17.2299L23.504 14.1176C23.462 13.369 23.299 12.7272 23.0152 12.1925C22.7314 11.6577 22.3897 11.3048 21.9902 11.1337C21.7169 11.1764 21.5066 11.2032 21.3595 11.2138C21.2123 11.2245 20.9915 11.2299 20.6972 11.2299C19.9824 12.877 19.2412 14.3582 18.4738 15.6738C17.7064 16.9893 16.9443 18.1177 16.1874 19.0588C15.83 19.508 15.4988 19.893 15.194 20.2139C14.8891 20.5347 14.5895 20.8235 14.2952 21.0802C14.0008 21.3369 13.7013 21.5668 13.3964 21.77C13.0915 21.9733 12.7603 22.1818 12.403 22.3957C10.4687 23.4653 8.57644 24 6.72631 24C5.8012 24 4.9445 23.8449 4.15606 23.5348C3.36762 23.2246 2.68432 22.7914 2.10613 22.2353C1.52793 21.6792 1.07594 21.0267 0.750031 20.2781C0.424148 19.5294 0.26123 18.7058 0.26123 17.8075C0.26123 16.631 0.529319 15.508 1.06537 14.4385C1.6015 13.369 2.32694 12.4278 3.24148 11.615C4.15603 10.8021 5.21775 10.1605 6.42667 9.68985C7.6356 9.21925 8.91287 8.98392 10.2584 8.98392C11.1345 8.98392 11.9036 9.14033 12.5658 9.45319C12.5774 9.45378 12.5866 9.44974 12.6113 9.43381L12.8144 9.37065C12.9004 9.37706 13.2516 9.27839 13.3702 9.25381C13.5564 9.21525 13.7416 9.18732 13.931 9.15694C13.9838 9.15019 14.0361 9.14743 14.0879 9.13986L14.1778 9.11693C14.1803 9.12137 14.1876 9.11355 14.1921 9.11104C14.2971 9.13392 14.4246 9.09437 14.5358 9.09188L14.8234 9.06658C14.8272 9.06562 14.8353 9.05665 14.8379 9.06111C14.8406 9.0655 14.8475 9.05759 14.852 9.0551L15.5533 9.05929L15.8274 9.06612L16.1119 9.08374L16.3403 9.10823L16.6691 9.12632C16.7159 9.16271 16.8394 9.16414 16.9132 9.1746C17.1044 9.20031 17.2872 9.23907 17.4727 9.27916C17.6098 9.30879 17.9165 9.40699 18.0292 9.40322C18.0788 9.45985 18.3573 9.52299 18.4395 9.5418C18.4934 9.5686 18.8102 9.68679 18.8573 9.68773C18.8732 9.70225 18.8653 9.70252 18.8943 9.71621C18.9049 9.72121 18.9097 9.72343 18.913 9.72466C19.2918 9.17871 19.7079 8.62697 20.161 8.06958C21.3174 6.64712 22.6841 5.24065 24.2609 3.85029C24.7655 3.44389 25.1597 3.11233 25.4435 2.85563C25.7273 2.59893 25.9481 2.40643 26.1058 2.2781C26.2635 2.14975 26.3633 2.0588 26.4054 2.00537C26.4474 1.9519 26.4685 1.90377 26.4685 1.86097L26.4054 1.82892C26.2372 1.82892 25.885 2.0161 25.3489 2.39038C24.8128 2.76475 24.1452 3.29418 23.3463 3.97864L21.5171 5.58296C21.0335 6.01074 20.592 6.32091 20.1926 6.51342C19.7931 6.70592 19.3831 6.80217 18.9626 6.80217C18.479 6.80217 18.0691 6.64172 17.7326 6.32089C17.3962 6.00001 17.2281 5.62573 17.2281 5.19793C17.2281 4.85563 17.3016 4.5348 17.4488 4.23532C17.596 3.93589 17.8482 3.57221 18.2057 3.14441C18.458 2.84498 18.6315 2.6097 18.726 2.4385C18.8206 2.2674 18.8679 2.09627 18.8679 1.92517C18.8679 1.75407 18.7996 1.60427 18.663 1.47594C18.5263 1.34764 18.3634 1.28344 18.1741 1.28344C17.7536 1.28344 17.2385 1.41174 16.6288 1.66844C16.0191 1.92515 15.4042 2.2567 14.7839 2.6631C14.1637 3.06953 13.5698 3.52939 13.0021 4.04279C12.4345 4.5562 11.9824 5.06953 11.646 5.58293C11.5199 5.75404 11.4147 5.83961 11.3306 5.83961C11.2466 5.83961 11.2045 5.79684 11.2045 5.71126C11.2045 5.51873 11.3675 5.22998 11.6933 4.84497C12.0192 4.45997 12.4554 4.02142 13.0021 3.52941C13.9692 2.71658 14.9258 2.08022 15.872 1.62037C16.8181 1.16049 17.6906 0.930509 18.4895 0.930509C18.9942 0.930509 19.4094 1.05881 19.7352 1.31551C20.0611 1.57222 20.2241 1.91445 20.2241 2.34225C20.2241 2.64175 20.161 2.93586 20.0348 3.22468C19.9087 3.51344 19.6879 3.87171 19.3726 4.29952C19.0361 4.72732 18.8155 5.04813 18.7103 5.26203C18.6052 5.47593 18.5526 5.67918 18.5526 5.87168C18.5526 6.02139 18.6104 6.15511 18.7261 6.27277C18.8417 6.39042 18.9626 6.44919 19.0888 6.44919C19.32 6.44919 19.6144 6.36902 19.9717 6.20857C20.3292 6.04811 20.6445 5.85029 20.9179 5.61498L23.0625 3.78609C24.0085 2.97326 24.8338 2.34222 25.5381 1.89307C26.2424 1.44386 26.7733 1.21926 27.1307 1.21926C27.2779 1.21926 27.3515 1.29411 27.3515 1.44389C27.3515 1.55082 27.2568 1.68984 27.0676 1.86097C26.4369 2.41717 25.8745 2.96263 25.3804 3.49736C24.8863 4.03214 24.408 4.62032 23.9455 5.26203C23.4829 5.90374 23.0256 6.63637 22.5736 7.45993C22.1216 8.28346 21.6117 9.26207 21.044 10.3958C21.2753 10.4385 21.4592 10.4813 21.5959 10.5241C21.7326 10.5669 21.9166 10.6417 22.1479 10.7487C22.5263 10.6845 22.9731 10.5241 23.4882 10.2674C24.0033 10.0107 24.5447 9.6952 25.1124 9.32085C25.68 8.94649 26.2529 8.51869 26.8311 8.03741C27.4093 7.55615 27.9612 7.04815 28.4868 6.51337L30.8205 3.97859C32.0189 2.67375 33.1648 1.68449 34.2581 1.01066C35.3513 0.336905 36.35 0 37.2541 0C37.7408 0 38.0108 0.0932697 38.0642 0.279855C38.093 0.301156 38.1113 0.316984 38.1674 0.391638L38.3731 0.640032C38.3915 0.712121 38.5101 0.894416 38.553 0.990544C38.6084 1.115 38.6439 1.23312 38.6925 1.37493C38.6961 1.39241 38.7031 1.43588 38.7091 1.45296C38.7272 1.50521 38.7214 1.48435 38.7382 1.50782C38.7238 1.60395 38.7523 1.77567 38.7305 1.92786C38.714 2.04329 38.6476 2.22487 38.6429 2.29856C38.6317 2.31052 38.6295 2.31276 38.6156 2.33352L38.6007 2.35803C38.5876 2.38064 38.5866 2.38853 38.5753 2.40684C38.5443 2.45667 38.5269 2.47346 38.4577 2.47459C38.3085 2.37356 38.2238 2.2908 38.1176 2.14615C38.0728 2.08515 38.0298 2.01999 37.9845 1.94462C37.9583 1.90093 37.899 1.76716 37.8703 1.74401L37.8043 1.52809C37.8023 1.52229 37.7961 1.50535 37.7937 1.50008C37.7716 1.45188 37.7873 1.48314 37.7707 1.46162C37.7762 1.39951 37.693 1.07296 37.6842 0.789389C37.6815 0.703862 37.6756 0.602631 37.675 0.499896L37.601 0.48128C37.3697 0.41708 37.1805 0.385029 37.0333 0.385029C36.6549 0.385029 36.2239 0.475931 35.7403 0.657709C35.2567 0.83956 34.7837 1.08019 34.3211 1.37969C34.0058 1.61499 33.6378 1.94652 33.2173 2.37435C32.7969 2.80216 32.2922 3.36903 31.7035 4.07484L29.7483 6.35289ZM12.8891 9.62333C12.9399 9.65289 12.99 9.68354 13.0394 9.71519C13.0566 9.70642 13.0717 9.69678 13.0835 9.68571C13.1987 9.68983 13.3718 9.59646 13.4723 9.65324C13.5186 9.69663 13.5049 9.8739 13.479 10.0399C13.4989 10.0567 13.5186 10.0737 13.5383 10.0909C13.6616 10.1991 13.7758 10.3122 13.881 10.4303C13.8863 10.4169 13.8919 10.403 13.8989 10.3885C13.9268 10.3307 13.9629 10.2659 13.9953 10.2162C14.0608 10.0867 14.2002 9.97476 14.2483 9.87456C14.2743 9.86248 14.2692 9.87308 14.2997 9.84574C14.3384 9.81093 14.3201 9.82301 14.3364 9.79715L14.5907 9.60166C14.6275 9.59017 14.6563 9.58216 14.6871 9.56744C14.7332 9.54537 14.7235 9.55297 14.754 9.51828C14.8345 9.52119 14.92 9.4827 15.0074 9.46658C15.1089 9.44782 15.1756 9.44323 15.2783 9.43586C15.3772 9.43776 15.4866 9.43073 15.5518 9.50282C15.5662 9.59962 15.4924 9.77935 15.4694 9.87481C15.4032 10.0122 15.3567 10.1488 15.2854 10.2901L15.2672 10.3276C15.2419 10.3387 15.2731 10.3135 15.246 10.3442C15.2359 10.3555 15.2321 10.3622 15.2237 10.3734L15.0655 10.5689L14.9953 10.653C14.9273 10.6881 14.8694 10.7507 14.8194 10.814C14.7877 10.814 14.794 10.8048 14.793 10.833C14.7751 10.8415 14.5861 10.9902 14.3689 11.1303C14.6561 11.6732 14.7997 12.2947 14.7997 12.9947C14.7997 13.7433 14.6262 14.4866 14.2794 15.2246C13.9325 15.9626 13.4541 16.5776 12.8444 17.0696C12.6763 17.1979 12.5133 17.3102 12.3556 17.4065C12.1979 17.5027 12.077 17.5508 11.993 17.5508C11.8878 17.5508 11.8353 17.4867 11.8353 17.3583C11.8353 17.2942 11.8615 17.2407 11.9141 17.1979C11.9666 17.1551 12.077 17.0802 12.2452 16.9732C12.855 16.5882 13.3595 16.0268 13.759 15.2888C14.1585 14.5508 14.3582 13.8075 14.3582 13.0588C14.3582 12.4088 14.2303 11.8362 13.9746 11.3409C13.9332 11.3592 13.8955 11.3769 13.8758 11.3904L13.6499 11.4426C13.6401 11.3296 13.6813 11.2714 13.6669 11.1625C13.6878 11.1352 13.676 11.1693 13.6909 11.1103C13.6964 11.0885 13.6993 11.053 13.7026 11.0295C13.7077 10.9934 13.7128 10.9603 13.7181 10.9272C13.6111 10.7813 13.4906 10.6435 13.3568 10.5138C13.2865 10.6797 13.197 10.8288 13.1853 10.8814L13.135 10.9357C12.9956 11.1153 12.9592 11.1735 12.7839 11.3613L12.316 11.7775C12.2347 11.8321 12.1338 11.9001 12.0431 11.9313C12.0225 11.9144 12.0333 11.9303 12.0096 11.8941L11.9705 11.7264C11.9364 11.6046 11.9952 11.7927 11.9601 11.6951C11.9584 11.6904 11.9551 11.684 11.9537 11.6803C11.9522 11.6765 11.9497 11.6701 11.9469 11.6655C11.9671 11.5915 11.9697 11.4523 11.9481 11.3817C11.9511 11.3767 11.9545 11.3748 11.9556 11.3658L11.9898 11.2041C12.0015 11.1043 12.0343 10.9824 12.063 10.8887C12.088 10.8072 12.1588 10.6519 12.1614 10.5805C12.2116 10.5442 12.273 10.3907 12.3143 10.3233C12.3703 10.2316 12.4431 10.1629 12.4797 10.0726C12.5209 10.0457 12.5653 9.99867 12.6088 9.9573C12.5042 9.89833 12.3958 9.84377 12.2838 9.79362C12.2142 9.8182 12.1487 9.84515 12.1068 9.86194C11.9962 9.89244 11.7961 9.938 11.7174 10.0187C11.6518 10.0195 11.5956 10.0511 11.5249 10.0808C11.4814 10.099 11.3836 10.1388 11.3597 10.1589C11.303 10.1739 11.3092 10.1733 11.2575 10.1988C11.245 10.2051 11.2147 10.2187 11.2084 10.2227C11.1395 10.2661 11.1946 10.2246 11.1649 10.2607L11.1632 10.253C11.0889 10.2718 11.0649 10.2895 10.9958 10.3254C10.9664 10.3407 10.9502 10.3466 10.9228 10.362C10.875 10.3886 10.8868 10.3778 10.8598 10.412C10.7861 10.4209 10.3811 10.6505 10.3313 10.7021C10.2725 10.7223 10.2258 10.7441 10.1776 10.7956C10.1267 10.8147 10.0639 10.8529 10.0406 10.8903C9.95117 10.913 9.66951 11.1208 9.56349 11.1978L9.49303 11.2654C9.44672 11.2848 9.32645 11.3646 9.30747 11.4148C9.21631 11.4338 9.27488 11.4154 9.25155 11.4529C9.19019 11.4789 8.44653 12.1423 8.40592 12.1842L7.94602 12.7234C7.91544 12.7622 7.88101 12.804 7.85421 12.8351L7.70282 13.0334C7.68072 13.0753 7.70188 13.0142 7.68833 13.0681C7.66664 13.0856 7.67864 13.0746 7.65431 13.0967C7.65186 13.0989 7.62896 13.1204 7.62559 13.1242C7.59215 13.1618 7.59322 13.1704 7.57054 13.2179C7.54732 13.2249 7.56043 13.2145 7.53901 13.2406C7.53591 13.2446 7.51354 13.279 7.50896 13.2857C7.48063 13.3264 7.46437 13.3426 7.44848 13.3833C7.44455 13.3865 7.43859 13.3964 7.4368 13.3929C7.42788 13.3756 7.12836 13.7967 7.09286 13.8891C7.06281 13.9013 7.07699 13.8943 7.04921 13.9364C7.02474 13.9735 7.01968 13.9827 7.0102 14.0174L6.98631 14.0379C6.97397 14.0508 6.97051 14.0511 6.95892 14.0688C6.92316 14.1234 6.94412 14.0902 6.93093 14.1417C6.89059 14.1702 6.61121 14.6687 6.60556 14.7431C6.60173 14.7465 6.59609 14.757 6.59449 14.7538L6.47405 15.0079C6.40884 15.0979 6.14817 15.7182 6.15049 15.8368C6.10835 15.8714 6.10724 15.9043 6.08853 15.9614C6.07188 16.0121 6.05756 16.0546 6.04161 16.1082C5.98677 16.3174 5.74154 17.0599 5.76104 17.2223C5.7499 17.2398 5.75542 17.2242 5.74069 17.2637C5.73691 17.274 5.72668 17.3106 5.72397 17.3229C5.71374 17.369 5.70776 17.4165 5.70049 17.4641C5.66273 17.6778 5.55061 18.3629 5.58061 18.5585C5.53859 18.6137 5.54564 18.7665 5.54159 18.8492C5.53396 18.9629 5.49674 19.1116 5.52276 19.2152L5.47704 19.2321L5.4925 18.4689C5.53861 18.3975 5.52819 18.206 5.53544 18.1036C5.54785 18.0254 5.55744 17.9714 5.54751 17.8908C5.59529 17.8298 5.59922 17.6507 5.60828 17.5628C5.64126 17.3782 5.6741 17.1875 5.70885 17.0137C5.73698 16.8733 5.82936 16.5695 5.82245 16.4582C5.85315 16.4254 5.84312 16.4471 5.86139 16.3828C5.87162 16.3469 5.87579 16.3134 5.8832 16.2762C5.91466 16.2019 6.08303 15.6673 6.08043 15.6087C6.1006 15.5866 6.09001 15.6126 6.1146 15.5593C6.13556 15.514 6.12941 15.517 6.13981 15.4743C6.16939 15.4299 6.22447 15.287 6.2262 15.2357C6.24173 15.2195 6.24047 15.2276 6.2559 15.2C6.26788 15.1788 6.2638 15.1824 6.27311 15.1595C6.28765 15.1237 6.29671 15.1005 6.31014 15.0623C6.36466 14.9599 6.40261 14.8525 6.45457 14.747L6.56536 14.5251C6.59567 14.4614 6.59097 14.4842 6.59323 14.4316C6.64591 14.3801 6.68168 14.2814 6.70681 14.2063C6.74025 14.1664 6.79213 14.0591 6.79487 14.005C6.81694 13.9858 6.80216 14.0157 6.82923 13.975C6.86551 13.9207 6.83606 13.9779 6.85303 13.9139C6.90193 13.8885 7.01054 13.7067 7.04684 13.6537L7.23627 13.3696C7.24395 13.3624 7.25834 13.3543 7.27674 13.3294C7.30759 13.2876 7.29503 13.3064 7.31561 13.2554C7.33657 13.248 7.32457 13.2571 7.34573 13.232C7.34573 13.232 7.37466 13.1921 7.37718 13.1886C7.38554 13.1767 7.39708 13.1617 7.40803 13.1443C7.44312 13.0883 7.42441 13.1295 7.43377 13.0857C7.5194 13.0196 7.57878 12.907 7.64253 12.8242C7.67651 12.7801 7.70622 12.7426 7.73966 12.6993C7.78379 12.6422 7.81776 12.6151 7.84274 12.5526C7.89145 12.5241 7.89504 12.5273 7.91222 12.4706C7.95468 12.4433 7.93238 12.4573 7.96602 12.425C7.97961 12.412 8.00794 12.3844 8.02073 12.3706C8.06048 12.3278 8.09171 12.2886 8.11767 12.2366C8.1355 12.2268 8.12431 12.2349 8.14611 12.2159C8.24152 12.133 8.57152 11.8028 8.60315 11.7393C8.66836 11.709 8.63247 11.741 8.66923 11.6813C8.72463 11.664 8.7601 11.6172 8.78647 11.5715C8.79025 11.5697 9.44408 11.0634 9.49223 10.9892C9.53616 10.9808 9.50187 10.9919 9.54115 10.9707L10.2996 10.4557C10.3345 10.4318 10.3263 10.441 10.3386 10.4225L10.5316 10.3184C10.5564 10.2987 10.5464 10.3061 10.5641 10.2865L10.6326 10.2603C10.6838 10.238 10.7241 10.2113 10.77 10.1888C10.8248 10.162 10.87 10.1437 10.9073 10.0964C10.9429 10.0926 11.4277 9.86667 11.4567 9.84298C11.5365 9.82005 11.671 9.78433 11.7272 9.72304L11.7682 9.71399L11.9423 9.65829C11.6899 9.57062 11.421 9.50285 11.1357 9.45507C11.1936 9.50753 11.2711 9.62077 11.2916 9.731C11.2268 9.88307 11.0237 9.92426 10.8649 10.0062L10.6047 10.0821C10.3321 10.1583 9.97533 10.1404 9.68747 10.123L9.59664 10.1178L9.23461 10.0746C9.19804 10.0448 9.24476 10.0707 9.18396 10.0501C9.17965 10.0486 9.137 10.0382 9.12607 10.0357C9.07549 10.0243 9.04171 10.017 8.98746 10.0062C8.91156 9.97932 8.39176 9.81616 8.36932 9.81529C8.30678 9.729 8.25082 9.79074 8.21249 9.67158C8.24002 9.6433 8.27671 9.61273 8.3197 9.5812C7.83618 9.70358 7.36289 9.87873 6.89972 10.1069C5.90111 10.5989 5.01807 11.2566 4.25064 12.0802C3.48325 12.9037 2.87356 13.8502 2.42152 14.9198C1.96945 15.9893 1.74348 17.1123 1.74348 18.2888C1.74348 19.9358 2.20073 21.23 3.1153 22.1711C4.02985 23.1123 5.28608 23.5829 6.884 23.5829C8.01928 23.5829 9.02851 23.3583 9.91148 22.9091C10.7945 22.4599 11.6776 21.7112 12.5606 20.6631C12.7709 20.4064 12.9864 20.123 13.2072 19.8128C13.4279 19.5027 13.6644 19.1336 13.9167 18.7058C14.169 18.278 14.4528 17.7861 14.7682 17.2299C15.0836 16.6738 15.441 16.0107 15.8404 15.2407L17.4173 12.2246C17.7871 11.4839 18.23 10.7319 18.7459 9.96852C18.5965 9.90501 18.3922 9.8325 18.3463 9.83176C18.3128 9.79715 18.3545 9.82217 18.2873 9.79315C18.2628 9.78255 18.239 9.77797 18.217 9.77156C18.1619 9.75548 18.1296 9.74249 18.0702 9.72708L17.3949 9.54254L17.3678 9.53975C17.2732 9.50785 17.0773 9.45923 16.978 9.47457C16.9588 9.46241 16.9765 9.46855 16.9356 9.45534C16.9231 9.45122 16.9002 9.44594 16.8911 9.44412C16.86 9.43771 16.8236 9.43413 16.79 9.42745C16.2091 9.37398 15.7265 9.30864 15.122 9.32141C14.8522 9.32708 14.5655 9.34678 14.2979 9.37568C14.1242 9.39437 13.6439 9.48692 13.5241 9.48093C13.4917 9.48808 13.459 9.49328 13.4279 9.50095C13.3593 9.51791 13.39 9.49737 13.3486 9.53334C13.2633 9.52666 13.1503 9.55859 13.0694 9.58344C13.0084 9.5937 12.9479 9.60807 12.8891 9.62333ZM17.804 8.52054C17.7611 8.47367 17.7725 8.4732 17.7416 8.38859C17.6863 8.23649 17.5944 8.12338 17.563 8.03889C17.5139 8.01675 17.5149 7.98704 17.4691 7.94012C17.4216 7.89138 17.4082 7.88645 17.384 7.82755L17.323 7.76485C17.2711 7.74602 17.2729 7.73759 17.2295 7.6989C17.1858 7.66002 17.1753 7.6707 17.1519 7.62242L16.9937 7.52948C16.9906 7.52691 16.986 7.5228 16.9833 7.52031C16.9803 7.51759 16.9754 7.512 16.973 7.5097C16.9706 7.50734 16.9646 7.49464 16.9629 7.49802C16.961 7.50152 16.956 7.48991 16.9526 7.48579L16.891 7.45845C16.8117 7.42701 16.6821 7.37773 16.6331 7.31582C16.5764 7.3136 16.1588 7.14864 16.028 7.11255C15.7673 7.04058 15.5761 7.03227 15.2987 6.99642C15.3342 7.11935 15.6137 7.58261 15.7186 7.72597L15.7724 7.83221C15.8065 7.85533 15.7995 7.84545 15.8338 7.88882L16.1837 8.31521C16.3181 8.46992 16.5997 8.69322 16.6419 8.74982C16.6956 8.76348 16.6818 8.76718 16.7319 8.80155C16.7648 8.82408 16.7711 8.82233 16.8066 8.85069C16.842 8.86891 16.8165 8.85352 16.8455 8.87512C16.8483 8.87714 16.8546 8.87924 16.8566 8.88614C16.8587 8.89309 16.8636 8.8941 16.8672 8.89795C16.9094 8.90167 17.0998 9.00258 17.1671 9.03052C17.2677 9.07235 17.3942 9.09489 17.4866 9.13458L17.8461 9.17982C17.8383 9.05946 17.8699 8.96553 17.8531 8.81728C17.8411 8.71139 17.8007 8.61321 17.804 8.52054ZM15.403 8.26356L15.3289 8.17681C15.089 7.85013 15.0121 7.86613 14.8209 7.7048C14.8178 7.70223 14.8125 7.69703 14.81 7.69481L14.7884 7.67334C14.7524 7.66767 14.5381 7.55859 14.4776 7.53335C14.3626 7.48535 14.2608 7.46409 14.1456 7.42319L13.8895 7.3582C13.7776 7.37682 13.6297 7.33877 13.5091 7.32958C13.3768 7.3194 13.2212 7.32149 13.0877 7.32554L12.9196 7.33579C12.7608 7.35995 12.7145 7.34484 12.7709 7.49092C12.8276 7.52859 12.7966 7.48971 12.8256 7.56316C12.8838 7.58386 12.9682 7.68714 12.9969 7.73189C13.0537 7.76665 13.0615 7.77109 13.0915 7.83211C13.1375 7.85349 13.1757 7.89422 13.2149 7.94219C13.2549 7.99108 13.2897 8.01618 13.3188 8.05033C13.3526 8.05033 13.3473 8.04014 13.3455 8.06971C13.4136 8.10905 13.4045 8.12222 13.4625 8.17419C13.8855 8.55367 14.1295 8.59218 14.3209 8.72303C14.3744 8.73755 14.345 8.72268 14.3989 8.75081C14.4624 8.78397 14.4251 8.76684 14.4479 8.78599C14.4794 8.7858 14.8473 8.8781 14.939 8.89696L15.4336 8.91565C15.5157 8.89445 15.5409 8.89331 15.56 8.81405C15.5776 8.74075 15.5625 8.65759 15.5442 8.59164C15.5137 8.48195 15.4105 8.31832 15.403 8.26356ZM13.0861 9.21538C13.108 9.19822 13.0843 9.21227 13.1242 9.19289C13.1275 9.19129 13.16 9.17844 13.1651 9.17654L13.3681 9.08656C13.3519 8.95959 13.2692 8.8761 13.2358 8.76866L12.9499 8.4535C12.8835 8.39081 12.8785 8.40728 12.8677 8.37022C12.8174 8.34862 12.8321 8.35703 12.8105 8.32747L12.7872 8.31235C12.7323 8.29648 12.7446 8.30072 12.6924 8.26859C12.6924 8.26859 12.6653 8.25084 12.658 8.24539C12.6369 8.22979 12.6373 8.2304 12.6239 8.21618C12.577 8.21071 12.3617 8.10777 12.2735 8.07942C12.1346 8.03472 12.0207 8.01584 11.8685 8.00154C11.6319 7.98403 11.432 7.99606 11.2 8.01793C11.0512 8.04372 10.9133 8.06229 10.7732 8.10314C10.6747 8.13181 10.4564 8.22789 10.3991 8.23489C10.3788 8.2589 10.3952 8.25464 10.3462 8.27094C10.366 8.38804 10.4025 8.38257 10.4758 8.43541C10.5303 8.47475 10.5717 8.50446 10.6277 8.54179C10.6991 8.58945 10.8908 8.70182 10.9302 8.74018C10.9898 8.76257 11.0282 8.77371 11.0673 8.82524L11.18 8.86937C11.2167 8.88086 11.246 8.89171 11.2763 8.90779C11.2982 8.91935 11.2931 8.91656 11.3116 8.92904C11.3362 8.94558 11.3284 8.93991 11.3449 8.95576C11.4296 8.96131 11.6011 9.04891 11.708 9.08352C11.7943 9.11146 11.9964 9.15576 12.0614 9.18618L12.2717 9.22257C12.3961 9.24632 12.5559 9.26293 12.6849 9.26173C12.8238 9.26044 12.9837 9.21185 13.0861 9.21538ZM8.13756 11.5831L8.40514 11.5C8.45126 11.4717 8.61616 11.4147 8.68484 11.3861C8.78261 11.3454 8.854 11.2903 8.93853 11.2568C9.00042 11.2087 9.0855 11.1573 9.15713 11.1021C9.204 11.0661 9.20293 11.0686 9.25627 11.0172C9.29606 10.9788 9.31225 10.9684 9.36127 10.9462C9.38184 10.9086 9.44255 10.8498 9.47546 10.8091C9.29335 10.6677 9.08696 10.5184 8.79941 10.4582C8.31848 10.3575 8.05636 10.4917 7.89659 10.488C7.85724 10.5283 7.69597 10.5818 7.62947 10.6111C7.53329 10.6534 7.44702 10.7075 7.35622 10.7404C7.33839 10.7578 6.99125 10.9709 6.85346 11.0901C6.75634 11.1741 6.4652 11.4228 6.44967 11.5397C6.61845 11.6603 7.46377 11.6492 7.73644 11.6317C7.85552 11.624 8.04552 11.5742 8.13756 11.5831ZM6.16392 13.5057C6.22183 13.451 6.37721 13.4252 6.46608 13.4034C6.56538 13.3588 6.66403 13.3277 6.77025 13.2798C6.83492 13.2506 7.011 13.1566 7.05944 13.1509C7.0988 13.0913 7.19081 13.0505 7.25258 13.0054C7.54104 12.7946 7.634 12.5887 7.74419 12.5088C7.76086 12.43 7.83567 12.3942 7.84589 12.2825C7.68685 12.2035 7.56991 12.1341 7.35906 12.0936C7.0718 12.0384 6.89626 12.1351 6.76024 12.1289C6.71618 12.1722 6.57214 12.2182 6.50189 12.2336L6.46314 12.2375C6.43176 12.2825 6.4157 12.2808 6.36343 12.3063C6.30851 12.333 6.29284 12.344 6.23308 12.3618C6.23308 12.3618 5.80907 12.649 5.67453 12.799L5.2419 13.3559C5.22531 13.4033 5.22981 13.3953 5.2019 13.4361C5.19485 13.4465 5.18622 13.4588 5.17774 13.4683C5.16162 13.4865 5.16128 13.4836 5.14337 13.4983L5.11665 13.607C5.30547 13.6259 5.49892 13.6142 5.68163 13.5903C5.80689 13.5739 6.06422 13.4992 6.16392 13.5057ZM16.065 11.2329C16.1013 11.1886 16.1415 11.19 16.2032 11.1673C16.2701 11.1427 16.2935 11.1263 16.3633 11.1099C16.399 11.0836 16.5423 11.0193 16.5875 10.9978C17.0269 10.7879 17.3976 10.4349 17.6185 9.9965C17.6687 9.89683 17.6948 9.86576 17.6697 9.7699C17.6216 9.75666 17.606 9.76463 17.5824 9.72257L17.3582 9.68329C17.3404 9.68004 17.2973 9.67553 17.2848 9.67262L17.2252 9.65136C17.1586 9.66966 17.0448 9.67269 16.983 9.65299L16.8576 9.68679C16.8015 9.6968 16.7651 9.70622 16.7074 9.71475L16.645 9.72493L16.6217 9.74424C16.5493 9.79143 16.6438 9.73418 16.5965 9.75896C16.5853 9.76477 16.5706 9.76971 16.5577 9.77491C16.5089 9.79481 16.5123 9.79434 16.4654 9.80812C16.4511 9.82412 16.2695 9.92787 16.2256 9.9591C15.8526 10.2248 15.7266 10.5188 15.6562 10.5941C15.6359 10.6598 15.6235 10.6959 15.5745 10.7396C15.5704 10.7944 15.5535 10.8249 15.524 10.8546L15.3923 11.132C15.3845 11.2197 15.3484 11.2185 15.3558 11.3378C15.6442 11.3825 15.8684 11.2281 16.065 11.2329ZM4.55641 15.7586L4.80339 15.659C4.92169 15.6247 5.3092 15.4461 5.36765 15.443C5.41476 15.3861 5.42389 15.3979 5.48496 15.3644C5.5233 15.3435 5.56471 15.3148 5.59881 15.2947C5.68554 15.2437 5.73247 15.2 5.81111 15.1481C5.90225 15.0904 5.96358 15.0223 6.03948 14.9417C6.08705 14.8912 6.20625 14.7709 6.25278 14.7375C6.27287 14.6797 6.31162 14.6507 6.34823 14.6035C6.38213 14.5598 6.40661 14.5299 6.43523 14.4868C6.47635 14.4251 6.54011 14.2758 6.58908 14.2293C6.58683 14.133 6.6366 14.0702 6.58125 13.9803C6.42314 13.9083 5.86268 13.9478 5.71338 14.0137C5.29529 14.1981 5.2341 14.3263 5.11616 14.3945L5.01186 14.4805L4.70854 14.874C4.60868 15.0152 4.49418 15.2615 4.45615 15.3118C4.44062 15.369 4.42138 15.4022 4.40224 15.4564C4.3946 15.4779 4.38636 15.5067 4.37735 15.5241C4.34485 15.5863 4.35859 15.555 4.34066 15.5747C4.34771 15.6522 4.31168 15.6695 4.32871 15.7727C4.41205 15.8114 4.47399 15.7487 4.55641 15.7586ZM4.23515 17.8963C4.25425 17.8652 4.33373 17.8232 4.3835 17.8136C4.42012 17.7568 4.49502 17.717 4.56045 17.6965C4.57809 17.6658 4.84977 17.4735 4.90696 17.4258C5.60324 16.8455 5.56636 16.5842 5.7025 16.4065L5.78266 16.1344L5.76519 15.894C5.73674 15.8203 5.44415 15.8753 5.33062 15.8583C5.27954 15.9049 5.17013 15.9327 5.10458 15.9677C5.03486 16.0048 4.95942 16.0603 4.88132 16.0864C4.86547 16.1135 4.87589 16.1035 4.84192 16.1289C4.78766 16.1697 4.82646 16.1461 4.78739 16.1567C4.73127 16.2273 4.7028 16.2593 4.62697 16.2915C4.60812 16.3322 4.58456 16.3453 4.54834 16.3897C4.51332 16.4328 4.51756 16.4523 4.47389 16.4626L4.30511 16.7107L4.29251 16.7339L4.22047 16.8914C4.14927 17.0376 4.08956 17.185 4.04291 17.3468C4.0108 17.4579 3.94979 17.8055 3.92357 17.8635V18.0217C4.02692 18.0285 4.13425 17.9306 4.23515 17.8963ZM9.29698 13.9019L9.64792 13.3259C9.64792 13.3259 9.87178 12.7506 9.88184 12.7331L9.8966 12.6585C9.96419 12.4261 9.96334 12.1339 9.96288 11.8754C9.96261 11.7431 9.95696 11.6211 9.90801 11.5093C9.87503 11.4339 9.81714 11.2732 9.75905 11.2402C9.75542 11.2436 9.74984 11.2539 9.74805 11.2504C9.74619 11.247 9.73955 11.2582 9.73703 11.2603L9.51835 11.3874L9.4978 11.4028L9.24568 11.6298C9.23114 11.6748 9.23381 11.6903 9.17834 11.7123C9.16067 11.7873 9.15519 11.7702 9.11305 11.8409C9.08208 11.8929 9.07205 11.9235 9.04879 11.9793C9.0263 12.0332 9.00531 12.0703 8.9835 12.1182C8.94972 12.1924 8.9561 12.2195 8.91982 12.2626C8.92547 12.3068 8.91044 13.0194 8.90434 13.0454L8.92101 13.0906C8.93296 13.1354 8.91876 13.0746 8.92825 13.1244L8.96228 13.3298C9.00175 13.4217 9.03439 13.5321 9.07322 13.6285C9.1091 13.7175 9.1755 13.8241 9.19477 13.9055C9.227 13.9228 9.22268 13.9198 9.26967 13.9298L9.29698 13.9019ZM4.28551 20.0646L4.36233 19.9852L4.54092 19.8246L4.58665 19.7757C4.61045 19.7041 4.75189 19.5662 4.81124 19.492L5.02817 19.2013L5.09418 19.0865C5.11679 19.0257 5.09193 19.0549 5.14071 19.0189C5.15132 18.9466 5.24021 18.7822 5.27205 18.6927C5.30622 18.5966 5.35374 18.4574 5.37158 18.3459L5.40574 18.2063C5.40674 18.209 5.40998 18.1965 5.41277 18.1919C5.39717 18.1176 5.41544 18.0405 5.40766 17.954C5.38311 17.6799 5.25056 17.8014 5.09232 17.7972C5.00428 17.885 4.71324 17.907 4.37939 18.3986C4.34822 18.4444 4.32789 18.4834 4.29605 18.5379L4.21569 18.6701C4.2066 18.7238 4.13296 18.8798 4.10577 18.9587C4.06443 19.0788 4.04846 19.1481 4.0229 19.2693C3.9777 19.561 3.91542 19.953 4.00273 20.2286C4.11089 20.2077 4.18664 20.0954 4.28551 20.0646ZM11.2524 11.9447C11.274 11.8897 11.3007 11.8482 11.3251 11.7978L11.3966 11.6771C11.3982 11.6803 11.4037 11.6698 11.4075 11.6663C11.4124 11.5983 11.4753 11.4788 11.5035 11.4014C11.5342 11.317 11.5601 11.2232 11.5768 11.121C11.6071 10.9352 11.5798 10.5592 11.6077 10.4467C11.5871 10.4177 11.6092 10.4695 11.5837 10.4039C11.5697 10.3679 11.5738 10.372 11.564 10.3329C11.3634 10.2285 11.3276 10.3593 11.1616 10.3761C11.1203 10.4293 11.092 10.4331 11.0319 10.4743C10.9727 10.5149 10.9633 10.5386 10.8942 10.5645C10.8784 10.5921 10.8783 10.5919 10.8482 10.6225C10.8182 10.6531 10.8183 10.6531 10.7913 10.6693L10.5313 11.0901C10.5298 11.0974 10.5253 11.0986 10.522 11.1026C10.5163 11.1659 10.4491 11.3138 10.4278 11.4069C10.4031 11.5155 10.3911 11.6434 10.3831 11.7656C10.3663 12.0219 10.3872 12.2696 10.4321 12.5094C10.4455 12.5578 10.4583 12.6045 10.4747 12.6504C10.4769 12.6563 10.5021 12.7132 10.5033 12.7148C10.5378 12.7585 10.4911 12.728 10.5583 12.7562C10.5935 12.7125 10.6223 12.7054 10.6605 12.6688C10.7028 12.6283 10.7177 12.6141 10.7554 12.5794C11.0246 12.3316 11.2044 11.9884 11.2524 11.9447ZM4.96977 21.7163C4.98664 21.6503 4.98438 21.6666 5.01809 21.6042C5.02904 21.5841 5.02931 21.5771 5.04421 21.5562C5.07201 21.5173 5.06035 21.5353 5.08568 21.5153L5.11495 21.446C5.13371 21.3928 5.20854 21.221 5.24922 21.1763C5.25232 21.0972 5.31203 20.9743 5.33767 20.8848C5.37058 20.7697 5.38757 20.6937 5.4072 20.5782L5.42338 20.3322L5.41418 20.0071L5.37482 19.9075C5.36525 19.872 5.35301 19.8183 5.34 19.7936C5.28877 19.696 5.2201 19.7432 5.13266 19.767L5.02725 19.8126L4.84592 19.9463C4.82832 19.9798 4.71591 20.1217 4.66965 20.1408C4.64597 20.2003 4.63136 20.2279 4.5771 20.2705C4.57221 20.3031 4.47993 20.4712 4.45245 20.509C4.44348 20.5463 4.44605 20.5539 4.42809 20.5936C4.40355 20.648 4.41462 20.621 4.39426 20.6435C4.39817 20.7111 4.25316 21.2504 4.30846 21.7389C4.32048 21.8446 4.37289 21.9718 4.35896 22.0682C4.4003 22.1213 4.38954 22.1101 4.40117 22.1819C4.4279 22.2518 4.42363 22.302 4.47348 22.3515C4.56894 22.3087 4.68021 22.1595 4.74729 22.056C4.77739 22.0095 4.94542 21.7347 4.96977 21.7163ZM8.48562 14.6911C8.50558 14.6047 8.52344 14.4419 8.56956 14.3816C8.56796 14.3563 8.61972 13.6532 8.62018 13.6516L8.57508 13.3672L8.5116 13.0727C8.46415 13.0207 8.42937 12.9156 8.39024 12.8495C8.32927 12.7465 8.28196 12.7271 8.23238 12.651C8.09845 12.7011 8.07521 12.7838 7.9893 12.8324C7.97392 12.8806 7.98957 12.8596 7.95761 12.9025L7.93008 12.9309C7.90182 12.9563 7.9168 12.9413 7.89298 12.9593C7.88568 12.9898 7.89312 12.97 7.87442 13.0052C7.86831 13.0167 7.85639 13.0346 7.84609 13.0505C7.82896 13.077 7.80928 13.1118 7.79333 13.13C7.77719 13.1822 7.76886 13.1952 7.74661 13.2477C7.72572 13.2972 7.73261 13.3036 7.69143 13.3441C7.68998 13.4489 7.63347 13.6017 7.62496 13.7395C7.61566 13.8903 7.64944 14.0737 7.63684 14.192C7.65608 14.2148 7.64348 14.1888 7.65826 14.2275C7.6594 14.2304 7.67227 14.2803 7.67387 14.2869C7.68627 14.3392 7.69383 14.3678 7.70159 14.4209C7.74312 14.4953 7.78606 14.6462 7.83528 14.7404C7.86797 14.803 7.97804 14.9745 7.98654 15.021C8.01274 15.0411 7.9981 15.0273 8.0209 15.0515L8.152 15.2446C8.20117 15.2679 8.17653 15.2733 8.24872 15.2852C8.33656 15.145 8.43868 14.8718 8.48562 14.6911ZM7.58234 16.7268C7.59501 16.6825 7.62295 16.6118 7.64324 16.5505L7.67096 16.4296C7.67236 16.426 7.67694 16.4129 7.67801 16.4156C7.67907 16.4183 7.68259 16.4062 7.68545 16.4018C7.66216 16.2892 7.70151 16.1389 7.70612 16.0151C7.71123 15.8781 7.68591 15.729 7.70658 15.5973C7.6774 15.5551 7.67168 15.4528 7.66153 15.3863C7.63885 15.2705 7.60812 15.1503 7.57269 15.0438C7.54277 14.9537 7.45844 14.8088 7.44848 14.751C7.33344 14.6366 7.18715 14.3078 7.04018 14.288C6.91545 14.3763 6.80977 14.5351 6.74327 14.706C6.63335 14.9884 6.70075 15.0965 6.66539 15.3699C6.69459 15.4072 6.70143 15.4884 6.70872 15.5436C6.78469 15.8445 6.93358 16.1185 6.93816 16.1488C6.99639 16.1886 6.99314 16.1822 7.01963 16.2515C7.04909 16.2651 7.16679 16.4051 7.18761 16.4427L7.4991 16.7593L7.58234 16.7268ZM7.19144 17.5256L7.0924 17.1152L7.05602 17.0033L7.00395 16.8427L6.97051 16.794C6.95497 16.7627 6.95405 16.7533 6.94397 16.7175C6.90125 16.66 6.86483 16.5754 6.82283 16.5147C6.71223 16.3548 6.6344 16.2884 6.48963 16.1644C6.43741 16.1197 6.34578 16.044 6.28794 16.0103C6.16997 16.1123 6.08581 16.3187 6.05477 16.4626C6.0176 16.6032 6.02152 16.6869 6.03381 16.8355L6.04377 16.9644C6.04702 16.9683 6.05099 16.98 6.0522 16.9771L6.09686 17.087C6.11366 17.1395 6.12795 17.1782 6.1415 17.227L6.24752 17.4452L6.30311 17.5393C6.34125 17.5646 6.35533 17.5984 6.38095 17.6358C6.51011 17.824 6.64838 17.9668 6.83107 18.1102C6.88429 18.152 7.01706 18.2323 7.03952 18.2692C7.10374 18.2916 7.11835 18.3111 7.17632 18.2987C7.25037 18.1139 7.20038 17.7418 7.19144 17.5256ZM6.40387 22.021C6.3872 21.9996 6.40293 22.0307 6.38097 21.9827C6.37852 21.9774 6.37242 21.9606 6.37036 21.9548L6.30469 21.7398C6.27616 21.7168 6.21711 21.5835 6.19096 21.54C6.14584 21.4649 6.10297 21.4 6.05841 21.3393C5.95265 21.1952 5.86825 21.1128 5.71966 21.0122C5.65071 21.0133 5.63346 21.0301 5.60261 21.0797C5.59125 21.0979 5.59025 21.1058 5.57721 21.1283L5.56246 21.1526C5.5486 21.1734 5.54634 21.1756 5.53527 21.1875C5.53057 21.2609 5.46448 21.4417 5.44801 21.5567C5.42634 21.7083 5.45464 21.8792 5.44025 21.975C5.45712 21.9984 5.45128 21.9776 5.46938 22.0296C5.47527 22.0466 5.48225 22.0899 5.48583 22.1073C5.53427 22.2485 5.56958 22.3662 5.62483 22.4902C5.66741 22.5859 5.78557 22.7674 5.80396 22.8392L6.00875 23.0866C6.09575 23.2024 6.09148 23.1759 6.17766 23.2498L6.23855 23.3095C6.28142 23.3249 6.38577 23.3876 6.41948 23.4179H6.42905C6.52537 23.2327 6.49671 22.9097 6.48994 22.6905C6.48125 22.408 6.39844 22.0829 6.40387 22.021ZM7.08057 19.4923C7.0774 19.4878 7.0734 19.4862 7.07207 19.4779C7.07081 19.4698 7.06569 19.4673 7.06405 19.4636C7.01621 19.3583 7.07473 19.4983 7.05089 19.4346L6.90905 18.9614C6.90004 18.9518 6.76455 18.6637 6.72714 18.6072C6.69011 18.5511 6.65415 18.5017 6.61334 18.4435C6.56848 18.3793 6.52135 18.3501 6.4904 18.2891C6.4329 18.2467 6.34431 18.1604 6.2978 18.1021C6.24207 18.0797 6.29632 18.112 6.24432 18.0742C6.23979 18.0709 6.22692 18.0598 6.22283 18.0561C6.20589 18.0405 6.20737 18.0394 6.19389 18.0236C6.13864 18.0096 5.91752 17.8666 5.83013 17.8239L5.71515 18.1082C5.73771 18.3253 5.65898 18.3883 5.78196 18.7491C5.87067 19.0094 6.00514 19.175 6.02344 19.2403C6.12502 19.3149 6.15015 19.4201 6.31709 19.5466L6.67111 19.8083C6.78728 19.8089 6.95306 19.9805 7.09431 19.914C7.15124 19.7826 7.0567 19.6166 7.08057 19.4923ZM7.15077 20.9079C7.12683 20.8846 7.04786 20.729 7.01861 20.6794C6.82998 20.3597 6.63999 20.2076 6.55341 20.0786C6.52062 20.0646 6.52554 20.0707 6.50669 20.0445C6.43498 20.0033 6.37772 19.9207 6.18844 19.8262C6.08189 19.7729 5.88393 19.7058 5.75639 19.7625C5.66082 19.8702 5.68149 20.1012 5.71374 20.2337C5.74864 20.3768 5.86619 20.5678 5.87734 20.6371C5.90114 20.6577 5.88437 20.6304 5.91907 20.6809C5.94393 20.7172 5.91754 20.6661 5.93824 20.7242C5.98076 20.757 5.97008 20.7569 6.00371 20.7988C6.02552 20.8261 6.01811 20.8095 6.039 20.8372C6.07285 20.8822 6.05102 20.8513 6.05904 20.8813C6.08039 20.8972 6.07396 20.892 6.09352 20.9101L6.22973 21.0615C6.28314 21.0793 6.26475 21.0731 6.3138 21.1165C6.33263 21.1332 6.34118 21.1366 6.35579 21.149C6.38267 21.1717 6.37186 21.1559 6.37961 21.1798C6.44994 21.2041 6.42188 21.1815 6.47037 21.2346C6.67429 21.3428 6.80102 21.4069 7.03945 21.4785L7.34323 21.5401L7.33819 21.5344C7.3449 21.2854 7.19815 21.1063 7.15077 20.9079ZM26.3233 15.018C26.3664 15.065 26.355 15.0656 26.3859 15.1505C26.4415 15.3033 26.5339 15.4168 26.5654 15.5016C26.6147 15.5238 26.6137 15.5537 26.6596 15.6008C26.7073 15.6497 26.7207 15.6548 26.7451 15.7139L26.8063 15.7768C26.8584 15.7957 26.8567 15.8042 26.9003 15.843C26.944 15.8821 26.9547 15.8714 26.9781 15.9199L27.137 16.0131C27.1401 16.0158 27.1447 16.0199 27.1475 16.0224C27.1504 16.0251 27.1554 16.0308 27.1578 16.0331C27.1602 16.0354 27.1662 16.0482 27.1679 16.0448C27.1698 16.0413 27.1748 16.0529 27.1783 16.057L27.24 16.0845C27.3197 16.116 27.4499 16.1656 27.4991 16.2277C27.556 16.23 27.9753 16.3956 28.1067 16.4318C28.3685 16.5041 28.5605 16.5124 28.839 16.5484C28.8034 16.425 28.5227 15.9598 28.4173 15.8159L28.3633 15.7092C28.3291 15.686 28.3362 15.6959 28.3017 15.6524L27.9504 15.2242C27.8153 15.0688 27.5326 14.8446 27.4902 14.7878C27.4363 14.7741 27.4501 14.7703 27.3998 14.7359C27.3668 14.7132 27.3605 14.7149 27.3248 14.6864C27.2893 14.6683 27.3149 14.6836 27.2858 14.662C27.283 14.6599 27.2767 14.6578 27.2746 14.6509C27.2726 14.6439 27.2677 14.6429 27.264 14.6391C27.2216 14.6353 27.0305 14.534 26.9629 14.5059C26.8618 14.4639 26.7348 14.4412 26.6421 14.4014L26.281 14.356C26.2888 14.4769 26.2571 14.5712 26.274 14.72C26.286 14.8264 26.3265 14.9249 26.3233 15.018ZM28.7342 15.276L28.8086 15.3631C29.0496 15.6912 29.1268 15.6751 29.3188 15.8371C29.3219 15.8397 29.3272 15.8449 29.3298 15.8472L29.3514 15.8687C29.3876 15.8744 29.6028 15.984 29.6635 16.0093C29.7789 16.0575 29.8812 16.0789 29.9969 16.1199L30.2541 16.1852C30.3664 16.1665 30.5149 16.2047 30.6359 16.2139C30.7689 16.2241 30.9251 16.222 31.0591 16.218L31.2279 16.2076C31.3874 16.1834 31.4339 16.1986 31.3773 16.0519C31.3204 16.014 31.3515 16.0531 31.3223 15.9794C31.264 15.9586 31.1792 15.8549 31.1503 15.8099C31.0933 15.775 31.0855 15.7706 31.0553 15.7093C31.0091 15.6878 30.9709 15.6469 30.9314 15.5987C30.8913 15.5497 30.8563 15.5244 30.8271 15.4902C30.7932 15.4902 30.7985 15.5004 30.8003 15.4707C30.732 15.4312 30.741 15.418 30.6829 15.3658C30.2581 14.9848 30.013 14.946 29.8208 14.8147C29.7671 14.8001 29.7966 14.815 29.7426 14.7868C29.6788 14.7535 29.7163 14.7707 29.6933 14.7514C29.6617 14.7516 29.2923 14.6589 29.2002 14.64L28.7035 14.6213C28.6212 14.6425 28.5958 14.6437 28.5767 14.7233C28.5589 14.7969 28.5741 14.8804 28.5926 14.9467C28.6231 15.0567 28.7267 15.2211 28.7342 15.276ZM31.0607 14.3203C31.0388 14.3375 31.0627 14.3235 31.0225 14.3429C31.0191 14.3444 30.9866 14.3574 30.9815 14.3593L30.7776 14.4496C30.7938 14.5771 30.8769 14.661 30.9105 14.7688L31.1975 15.0853C31.2642 15.1483 31.2693 15.1317 31.2801 15.169C31.3306 15.1906 31.3158 15.1822 31.3376 15.2118L31.3609 15.2271C31.416 15.243 31.4036 15.2387 31.4561 15.271C31.4561 15.271 31.4833 15.2888 31.4907 15.2943C31.5118 15.3099 31.5114 15.3093 31.5249 15.3236C31.572 15.3291 31.7882 15.4325 31.8768 15.461C32.0163 15.5059 32.1306 15.5248 32.2834 15.5391C32.521 15.5567 32.7217 15.5446 32.9547 15.5227C33.1041 15.4968 33.2426 15.4781 33.3832 15.4371C33.4822 15.4083 33.7014 15.3118 33.7589 15.3048C33.7792 15.2807 33.7628 15.285 33.812 15.2687C33.7921 15.1511 33.7554 15.1565 33.6819 15.1035C33.6272 15.0639 33.5856 15.0342 33.5293 14.9967C33.4576 14.9488 33.2651 14.8359 33.2256 14.7974C33.1658 14.775 33.1272 14.7638 33.0879 14.7121L32.9749 14.6678C32.9379 14.6562 32.9085 14.6453 32.878 14.6292C32.8561 14.6175 32.8612 14.6204 32.8426 14.6079C32.818 14.5912 32.8258 14.5969 32.8092 14.581C32.7242 14.5755 32.5519 14.4874 32.4445 14.4527C32.358 14.4247 32.1551 14.3801 32.0897 14.3496L31.8786 14.313C31.7536 14.2892 31.5932 14.2725 31.4636 14.2737C31.3241 14.275 31.1636 14.3238 31.0607 14.3203ZM33.5525 13.45L33.2912 13.5262C33.1317 13.6085 32.9279 13.6499 32.8627 13.8026C32.8841 13.9174 32.9671 14.0357 33.0258 14.0853C33.0607 14.1149 33.1085 14.1511 33.1516 14.1822C33.2057 14.2213 33.2308 14.2182 33.2644 14.28C33.3178 14.2872 33.3962 14.3197 33.4385 14.3617C33.4703 14.3713 33.4914 14.376 33.5204 14.3888C33.6351 14.4394 33.4334 14.3384 33.5467 14.402C33.5887 14.4254 33.5627 14.4109 33.5821 14.4265L33.8566 14.463L34.0126 14.477C34.4301 14.5081 34.764 14.4587 35.1284 14.3281C35.3912 14.2341 35.8053 14.0155 35.9546 13.8622C35.9161 13.7425 35.8599 13.8045 35.7971 13.7178C35.7746 13.717 35.2526 13.5532 35.1764 13.5262C35.1219 13.5153 35.088 13.508 35.0373 13.4966C35.0262 13.4941 34.9835 13.4836 34.9791 13.4821C34.9181 13.4614 34.9649 13.4874 34.9283 13.4575L34.5647 13.4141L34.4735 13.4089C34.1845 13.3914 33.8262 13.3735 33.5525 13.45ZM36.0299 11.9428L35.7612 12.0262C35.7148 12.0546 35.5492 12.1119 35.4803 12.1406C35.3821 12.1814 35.3105 12.2367 35.2256 12.2704C35.1634 12.3188 35.078 12.3703 35.006 12.4258C34.959 12.462 34.9601 12.4594 34.9065 12.511C34.8665 12.5496 34.8503 12.56 34.8011 12.5822C34.7804 12.6201 34.7194 12.6791 34.6864 12.7199C34.8693 12.862 35.0765 13.0118 35.3653 13.0723C35.8482 13.1734 36.1114 13.0386 36.2719 13.0424C36.3114 13.0019 36.4733 12.9482 36.54 12.9188C36.6367 12.8764 36.7232 12.822 36.8144 12.7889C36.8324 12.7715 37.1809 12.5576 37.3193 12.4378C37.4168 12.3535 37.7091 12.1036 37.7247 11.9863C37.5552 11.8652 36.7065 11.8764 36.4327 11.8939C36.313 11.9017 36.1223 11.9517 36.0299 11.9428ZM38.0116 10.0123C37.9535 10.0671 37.7974 10.093 37.7083 10.1148C37.6085 10.1597 37.5095 10.1909 37.4028 10.239C37.3379 10.2683 37.1611 10.3627 37.1124 10.3684C37.0729 10.4283 36.9805 10.4693 36.9184 10.5146C36.6288 10.7262 36.5355 10.933 36.4248 11.0133C36.4081 11.0923 36.333 11.1283 36.3227 11.2405C36.4823 11.3198 36.5998 11.3894 36.8115 11.4301C37.1 11.4855 37.2763 11.3885 37.4129 11.3947C37.4571 11.3512 37.6017 11.305 37.6723 11.2896L37.7112 11.2856C37.7427 11.2404 37.7588 11.2421 37.8113 11.2166C37.8665 11.1897 37.8822 11.1787 37.9422 11.1608C37.9422 11.1608 38.368 10.8724 38.503 10.7218L38.9375 10.1626C38.9541 10.1151 38.9496 10.123 38.9777 10.082C38.9847 10.0717 38.9934 10.0594 39.0019 10.0497C39.0181 10.0314 39.0184 10.0344 39.0365 10.0196L39.0632 9.91053C38.8736 9.89152 38.6794 9.90318 38.4959 9.92722C38.3701 9.94377 38.1118 10.0187 38.0116 10.0123ZM28.0695 12.2944C28.033 12.3389 27.9927 12.3374 27.9307 12.3603C27.8636 12.385 27.8401 12.4014 27.77 12.418C27.7341 12.4443 27.5903 12.5089 27.5449 12.5306C27.1038 12.7413 26.7315 13.0957 26.5096 13.5359C26.4592 13.636 26.433 13.6672 26.4582 13.7635C26.5065 13.7768 26.5222 13.7688 26.5458 13.811L26.771 13.8504C26.7888 13.8537 26.8322 13.8583 26.8447 13.8612L26.9045 13.8825C26.9715 13.8641 27.0857 13.8611 27.1478 13.8809L27.2737 13.8469C27.3301 13.8369 27.3665 13.8274 27.4245 13.8189L27.4872 13.8086L27.5106 13.7893C27.5832 13.7419 27.4883 13.7994 27.5359 13.7745C27.5471 13.7686 27.5618 13.7637 27.5748 13.7584C27.6239 13.7385 27.6204 13.7389 27.6675 13.7251C27.6819 13.709 27.8642 13.6049 27.9083 13.5735C28.2828 13.3066 28.4094 13.0115 28.48 12.9359C28.5005 12.87 28.5129 12.8337 28.5621 12.7898C28.5662 12.7348 28.5832 12.7041 28.6128 12.6743L28.7451 12.3958C28.7529 12.3077 28.7892 12.3089 28.7816 12.1891C28.4922 12.1442 28.267 12.2993 28.0695 12.2944ZM39.6258 7.74996L39.3778 7.84991C39.2591 7.88435 38.8699 8.06376 38.8112 8.0668C38.7639 8.12402 38.7547 8.11216 38.6934 8.14569C38.6549 8.16675 38.6133 8.19567 38.5791 8.21576C38.492 8.26702 38.4448 8.3108 38.3659 8.36292C38.2744 8.42096 38.2128 8.48928 38.1366 8.57019C38.0889 8.62095 37.9691 8.74176 37.9224 8.77532C37.9023 8.83328 37.8633 8.86247 37.8266 8.90983C37.7925 8.95372 37.768 8.98374 37.7392 9.02694C37.6979 9.08897 37.6339 9.23897 37.5847 9.28562C37.587 9.38219 37.537 9.44525 37.5926 9.53569C37.7514 9.60792 38.3142 9.56823 38.4641 9.50215C38.8839 9.31693 38.9453 9.18816 39.0637 9.11976L39.1684 9.03343L39.473 8.63816C39.5733 8.49648 39.6883 8.24912 39.7264 8.1986C39.7421 8.14118 39.7614 8.10787 39.7806 8.05336C39.7883 8.03184 39.7966 8.00292 39.8056 7.98551C39.8382 7.92301 39.8244 7.9544 39.8425 7.93467C39.8354 7.85679 39.8716 7.83946 39.8545 7.73581C39.7708 7.697 39.7086 7.75992 39.6258 7.74996ZM30.2678 12.1362C30.2217 12.1679 30.0777 12.2221 30.0158 12.2543C29.7159 12.4102 29.3714 12.6843 29.3469 12.696C29.3458 12.7243 29.3521 12.7151 29.3203 12.7151C29.2701 12.7785 29.2119 12.8415 29.1437 12.8768L29.0731 12.9612L28.9144 13.1575C28.9059 13.1687 28.902 13.1755 28.892 13.1868C28.8646 13.2176 28.8961 13.1923 28.8707 13.2035L28.8523 13.2412C28.7807 13.383 28.734 13.5201 28.6677 13.6581C28.6445 13.7539 28.5704 13.9344 28.5849 14.0317C28.6504 14.1041 28.7602 14.097 28.8594 14.099C28.9627 14.0915 29.0295 14.0869 29.1316 14.068C29.2192 14.0518 29.3051 14.0132 29.386 14.0161C29.4166 13.9813 29.4069 13.9889 29.4532 13.9668C29.4841 13.952 29.513 13.944 29.5499 13.9325L29.8053 13.7361C29.8216 13.7102 29.8032 13.7223 29.8421 13.6874C29.8728 13.6598 29.8676 13.6706 29.8938 13.6584C29.9421 13.5578 30.082 13.4454 30.1478 13.3154C30.1803 13.2654 30.2166 13.2003 30.2446 13.1423C30.2605 13.1095 30.2692 13.08 30.2833 13.0507C30.3087 12.9981 30.2931 13.0152 30.3322 12.9843L30.4166 12.6603C30.4253 12.6059 30.4337 12.5562 30.4418 12.4986C30.4451 12.475 30.448 12.4395 30.4535 12.4176C30.4685 12.3583 30.4566 12.3925 30.4777 12.3651C30.4632 12.2558 30.5045 12.1973 30.4947 12.0838L30.2678 12.1362ZM39.9485 5.60335C39.9292 5.63468 39.8494 5.67679 39.7994 5.68646C39.7627 5.74341 39.6874 5.78345 39.6218 5.80403C39.604 5.83483 39.3312 6.02794 39.2738 6.0758C38.5747 6.65858 38.6117 6.92091 38.475 7.09935L38.3945 7.37258L38.412 7.61394C38.4406 7.68801 38.7344 7.63278 38.8484 7.64979C38.8997 7.60295 39.0095 7.57506 39.0754 7.53998C39.1454 7.50273 39.2211 7.44698 39.2996 7.42078C39.3154 7.39358 39.305 7.40362 39.3391 7.37802C39.3936 7.33712 39.3546 7.36089 39.3938 7.35024C39.4503 7.27928 39.4788 7.24723 39.555 7.21484C39.5739 7.17393 39.5976 7.16082 39.6339 7.11617C39.6691 7.07295 39.6648 7.05333 39.7086 7.043L39.8781 6.79391L39.8907 6.77059L39.9631 6.61243C40.0347 6.46561 40.0946 6.31759 40.1415 6.15511C40.1736 6.04355 40.2349 5.69459 40.2612 5.63626V5.47741C40.1575 5.47065 40.0498 5.5689 39.9485 5.60335ZM31.834 11.7475L31.3643 12.1655C31.1882 12.3541 31.1517 12.4124 31.0118 12.5928L30.9611 12.6474C30.9456 12.7177 30.791 12.9602 30.7287 13.1855C30.7028 13.2791 30.5885 13.8015 30.673 13.8806C30.774 13.9376 30.9478 13.8439 31.0635 13.848C31.1138 13.8005 31.2266 13.7785 31.2963 13.744C31.3768 13.704 31.4333 13.6573 31.5039 13.608C31.5586 13.5616 31.6168 13.494 31.6696 13.4595C31.7065 13.3688 31.7795 13.2998 31.8358 13.2078C31.8772 13.1401 31.9389 12.986 31.9894 12.9494C31.9919 12.8778 32.063 12.7218 32.088 12.64C32.1169 12.5459 32.1499 12.4236 32.1616 12.3233L32.1959 12.161C32.1971 12.1519 32.2004 12.15 32.2036 12.145C32.1818 12.074 32.1844 11.9343 32.2048 11.8599C32.2019 11.8554 32.1994 11.849 32.1979 11.8452C32.1965 11.8414 32.1932 11.835 32.1915 11.8302C32.1563 11.7323 32.2152 11.9211 32.181 11.7988L32.1417 11.6305C32.118 11.5941 32.1288 11.6101 32.1081 11.5931C32.017 11.6244 31.9157 11.6927 31.834 11.7475ZM34.8656 9.61428L34.5132 10.1928C34.5132 10.1928 34.2884 10.7703 34.2783 10.788L34.2635 10.8628C34.1956 11.0963 34.1965 11.3897 34.1969 11.6492C34.1972 11.7821 34.2029 11.9046 34.252 12.0169C34.2851 12.0926 34.3433 12.254 34.4016 12.2871C34.4052 12.2837 34.4108 12.2733 34.4127 12.2768C34.4145 12.2803 34.4212 12.269 34.4237 12.2669L34.6433 12.1394L34.664 12.1239L34.9171 11.8959C34.9317 11.8507 34.929 11.8351 34.9847 11.813C35.0024 11.7377 35.008 11.7549 35.0502 11.6839C35.0814 11.6316 35.0914 11.601 35.1149 11.5449C35.1373 11.4909 35.1584 11.4536 35.1803 11.4054C35.2142 11.331 35.2079 11.3037 35.2443 11.2605C35.2386 11.216 35.2537 10.5006 35.2598 10.4744L35.2431 10.429C35.2311 10.384 35.2454 10.4451 35.2359 10.3951L35.2016 10.1889C35.1621 10.0966 35.1292 9.9857 35.0903 9.88896C35.0542 9.79956 34.9875 9.69251 34.9682 9.61073C34.9359 9.59345 34.9402 9.59633 34.893 9.58637L34.8656 9.61428ZM39.8978 3.42599L39.8207 3.50584L39.6413 3.66711L39.5955 3.71612C39.5715 3.78806 39.4295 3.92657 39.37 4.0011L39.1521 4.29303L39.0858 4.40825C39.0631 4.46927 39.0881 4.44005 39.0391 4.47614C39.0284 4.54865 38.9391 4.71374 38.9071 4.80365C38.8729 4.90018 38.8252 5.03997 38.8072 5.15187L38.7729 5.29213C38.772 5.28942 38.7687 5.30192 38.7659 5.30651C38.7816 5.38111 38.7633 5.4586 38.771 5.54538C38.7957 5.82063 38.9287 5.69861 39.0876 5.70293C39.1761 5.61464 39.4684 5.59265 39.8035 5.09904C39.8349 5.05298 39.8553 5.01383 39.8872 4.95918L39.9679 4.82641C39.977 4.77254 40.051 4.61584 40.0783 4.53657C40.1198 4.41601 40.1358 4.34636 40.1615 4.22467C40.2069 3.93172 40.2694 3.53821 40.1818 3.26142C40.0732 3.2824 39.9971 3.39519 39.8978 3.42599ZM32.9021 11.5796C32.8803 11.6349 32.8535 11.6766 32.829 11.7272L32.7573 11.8483C32.7557 11.8451 32.7501 11.8558 32.7463 11.8591C32.7414 11.9275 32.6783 12.0475 32.6499 12.1252C32.619 12.2099 32.5931 12.3041 32.5763 12.4068C32.5459 12.5933 32.5732 12.9709 32.5453 13.0839C32.5659 13.1129 32.5437 13.061 32.5694 13.1269C32.5834 13.163 32.5793 13.1589 32.5892 13.1981C32.7906 13.303 32.8265 13.1717 32.9932 13.1547C33.0347 13.1013 33.0631 13.0976 33.1234 13.0562C33.1829 13.0154 33.1924 12.9916 33.2618 12.9655C33.2776 12.9379 33.2778 12.938 33.3079 12.9074C33.3381 12.8766 33.3379 12.8766 33.3651 12.8604L33.6262 12.4378C33.6277 12.4304 33.6322 12.4293 33.6355 12.4253C33.6411 12.3617 33.7087 12.2132 33.73 12.1196C33.7549 12.0106 33.7669 11.8822 33.7749 11.7595C33.7919 11.5021 33.7708 11.2534 33.7258 11.0126C33.7124 10.964 33.6994 10.9171 33.6829 10.871C33.6808 10.8651 33.6555 10.808 33.6542 10.8064C33.6197 10.7626 33.6665 10.7931 33.599 10.7649C33.5637 10.8087 33.5348 10.8158 33.4964 10.8526C33.454 10.8932 33.439 10.9074 33.4011 10.9423C33.1308 11.1911 32.9503 11.5359 32.9021 11.5796ZM39.2108 1.7675C39.1938 1.83387 39.196 1.81755 39.1622 1.8801C39.1512 1.90034 39.151 1.90729 39.1359 1.9283C39.1081 1.96733 39.1198 1.94936 39.0943 1.96943L39.0649 2.039C39.0462 2.09235 38.971 2.26486 38.9301 2.30976C38.9269 2.38922 38.867 2.51259 38.8413 2.6025C38.8082 2.71813 38.7912 2.79434 38.7715 2.91031L38.7552 3.15735L38.7645 3.48385L38.804 3.58387C38.8136 3.61945 38.8259 3.67339 38.839 3.69822C38.8904 3.79622 38.9594 3.74884 39.0471 3.72495L39.153 3.67916L39.3352 3.54485C39.3527 3.51124 39.4656 3.36874 39.5121 3.34956C39.5359 3.28992 39.5505 3.26216 39.605 3.21931C39.61 3.18672 39.7026 3.01783 39.7302 2.97977C39.7392 2.94236 39.7366 2.93467 39.7546 2.89483C39.7793 2.84032 39.7681 2.86737 39.7886 2.84481C39.7846 2.77691 39.9303 2.23537 39.8748 1.74485C39.8627 1.63874 39.8101 1.51095 39.824 1.41416C39.7825 1.3609 39.7933 1.37212 39.7817 1.29996C39.7548 1.22982 39.7591 1.1794 39.709 1.12967C39.6132 1.17274 39.5014 1.32244 39.4341 1.42639C39.4039 1.47318 39.2352 1.74901 39.2108 1.7675ZM35.6803 8.82184C35.6602 8.90857 35.6423 9.07211 35.596 9.13266C35.5976 9.15803 35.5456 9.86413 35.5451 9.86564L35.5905 10.1512L35.6542 10.4469C35.7018 10.4992 35.7367 10.6047 35.776 10.671C35.8373 10.7745 35.8848 10.794 35.9345 10.8704C36.0691 10.8201 36.0924 10.737 36.1787 10.6883C36.1941 10.6398 36.1783 10.661 36.2105 10.6178L36.2381 10.5894C36.2666 10.5638 36.2515 10.5789 36.2753 10.5608C36.2827 10.5302 36.2752 10.5501 36.294 10.5147C36.3001 10.5031 36.3121 10.4853 36.3224 10.4694C36.3397 10.4427 36.3595 10.4077 36.3754 10.3894C36.3916 10.3371 36.4 10.324 36.4224 10.2712C36.4433 10.2215 36.4364 10.2151 36.4778 10.1744C36.4792 10.0692 36.536 9.91586 36.5445 9.77735C36.5538 9.62595 36.5199 9.44188 36.5326 9.32302C36.5132 9.30016 36.5259 9.32627 36.5111 9.28739C36.51 9.28448 36.497 9.23438 36.4954 9.22773C36.483 9.17526 36.4754 9.14652 36.4675 9.09314C36.4259 9.01848 36.3828 8.86696 36.3333 8.77238C36.3005 8.70956 36.1899 8.53728 36.1814 8.49058C36.1551 8.47041 36.1699 8.48432 36.147 8.46001L36.0153 8.26615C35.9659 8.24268 35.9907 8.23726 35.9182 8.22538C35.8299 8.36605 35.7274 8.64046 35.6803 8.82184ZM36.5873 6.77769C36.5746 6.82217 36.5465 6.89312 36.5262 6.95473L36.4983 7.07611C36.4969 7.07975 36.4923 7.09292 36.4913 7.09023C36.4902 7.08752 36.4867 7.0996 36.4838 7.10399C36.5072 7.21713 36.4677 7.36806 36.463 7.49245C36.4579 7.62994 36.4834 7.77965 36.4625 7.91187C36.4918 7.9542 36.4976 8.05701 36.5078 8.12375C36.5305 8.24004 36.5614 8.36065 36.597 8.46768C36.6271 8.55813 36.7117 8.7037 36.7217 8.76171C36.8373 8.87657 36.9841 9.2068 37.1317 9.22657C37.2569 9.13791 37.3631 8.97845 37.4298 8.80685C37.5402 8.5233 37.4725 8.41477 37.5081 8.14024C37.4787 8.10277 37.4719 8.02124 37.4645 7.96589C37.3883 7.66362 37.2388 7.3885 37.2341 7.35813C37.1757 7.31811 37.1789 7.3246 37.1524 7.255C37.1228 7.24136 37.0046 7.10084 36.9837 7.06302L36.6709 6.74504L36.5873 6.77769ZM36.9799 5.97565L37.0793 6.38768L37.1158 6.50001L37.1681 6.66134L37.2017 6.71021C37.2173 6.74159 37.2183 6.75111 37.2283 6.78711C37.2713 6.8448 37.3078 6.92973 37.35 6.99073C37.461 7.15125 37.5392 7.21802 37.6845 7.3424C37.737 7.38729 37.829 7.46335 37.8871 7.49718C38.0055 7.39479 38.09 7.18749 38.1213 7.04304C38.1585 6.90177 38.1546 6.81775 38.1422 6.66864L38.1323 6.53911C38.129 6.53519 38.125 6.52345 38.1237 6.52634L38.0789 6.41613C38.062 6.36332 38.0477 6.32447 38.0342 6.27545L37.9277 6.05642L37.8719 5.96187C37.8336 5.9365 37.8194 5.90255 37.7937 5.865C37.664 5.67608 37.5251 5.53259 37.3417 5.38861C37.2883 5.34662 37.1549 5.26602 37.1324 5.22889C37.0679 5.20643 37.0532 5.18683 36.995 5.19926C36.9207 5.38488 36.9709 5.75852 36.9799 5.97565ZM37.0911 4.00078C37.0943 4.00529 37.0984 4.00685 37.0997 4.01515C37.101 4.02334 37.1061 4.02583 37.1077 4.02948C37.1558 4.13525 37.097 3.99472 37.121 4.05877L37.2634 4.53389C37.2725 4.54343 37.4085 4.8328 37.446 4.88955C37.4832 4.94581 37.5193 4.99537 37.5603 5.0539C37.6054 5.11834 37.6528 5.14763 37.6838 5.20895C37.7415 5.25148 37.8304 5.33819 37.8772 5.39672C37.9331 5.41913 37.8786 5.38681 37.9308 5.42473C37.9354 5.42805 37.9484 5.43912 37.9524 5.44287C37.9694 5.45848 37.968 5.45964 37.9815 5.47554C38.037 5.48952 38.259 5.63323 38.3468 5.676L38.4622 5.39048C38.4396 5.17253 38.5186 5.10929 38.3952 4.7469C38.3061 4.48561 38.1711 4.31922 38.1526 4.25376C38.0506 4.17884 38.0254 4.07319 37.8578 3.94622L37.5023 3.68338C37.3857 3.68284 37.2192 3.51045 37.0774 3.57719C37.0202 3.70922 37.1151 3.87591 37.0911 4.00078ZM37.0207 2.57925C37.0447 2.60265 37.124 2.75891 37.1533 2.80869C37.3428 3.12976 37.5336 3.28245 37.6205 3.41198C37.6535 3.42601 37.6485 3.41995 37.6674 3.44625C37.7394 3.48757 37.7969 3.57046 37.987 3.66543C38.094 3.71891 38.2928 3.78634 38.4208 3.72941C38.5168 3.62122 38.496 3.38928 38.4637 3.25624C38.4286 3.11255 38.3106 2.92084 38.2994 2.85119C38.2755 2.83048 38.2924 2.85795 38.2575 2.80716C38.2325 2.77079 38.259 2.82203 38.2382 2.76369C38.1955 2.73076 38.2063 2.7309 38.1725 2.68884C38.1505 2.66143 38.158 2.67809 38.1371 2.65023C38.1031 2.60499 38.1249 2.63618 38.1169 2.60593C38.0955 2.59 38.102 2.59528 38.0823 2.57713L37.9455 2.42511C37.8919 2.40714 37.9104 2.41335 37.8612 2.36976C37.8422 2.35302 37.8336 2.3496 37.819 2.33717C37.792 2.31444 37.8028 2.33014 37.795 2.3062C37.7244 2.2819 37.7526 2.3045 37.7039 2.25127C37.4991 2.14265 37.3719 2.0782 37.1325 2.00631L36.8274 1.94442L36.8325 1.9501C36.8257 2.20012 36.9731 2.37997 37.0207 2.57925Z" fill="#181511"/>
</svg>
